G04 #@! TF.GenerationSoftware,KiCad,Pcbnew,(7.0.0)*
G04 #@! TF.CreationDate,2024-04-08T21:26:30+08:00*
G04 #@! TF.ProjectId,LocateMagnet,4c6f6361-7465-44d6-9167-6e65742e6b69,2.0*
G04 #@! TF.SameCoordinates,Original*
G04 #@! TF.FileFunction,Paste,Top*
G04 #@! TF.FilePolarity,Positive*
%FSLAX46Y46*%
G04 Gerber Fmt 4.6, Leading zero omitted, Abs format (unit mm)*
G04 Created by KiCad (PCBNEW (7.0.0)) date 2024-04-08 21:26:30*
%MOMM*%
%LPD*%
G01*
G04 APERTURE LIST*
G04 Aperture macros list*
%AMRoundRect*
0 Rectangle with rounded corners*
0 $1 Rounding radius*
0 $2 $3 $4 $5 $6 $7 $8 $9 X,Y pos of 4 corners*
0 Add a 4 corners polygon primitive as box body*
4,1,4,$2,$3,$4,$5,$6,$7,$8,$9,$2,$3,0*
0 Add four circle primitives for the rounded corners*
1,1,$1+$1,$2,$3*
1,1,$1+$1,$4,$5*
1,1,$1+$1,$6,$7*
1,1,$1+$1,$8,$9*
0 Add four rect primitives between the rounded corners*
20,1,$1+$1,$2,$3,$4,$5,0*
20,1,$1+$1,$4,$5,$6,$7,0*
20,1,$1+$1,$6,$7,$8,$9,0*
20,1,$1+$1,$8,$9,$2,$3,0*%
G04 Aperture macros list end*
%ADD10RoundRect,0.140000X-0.170000X0.140000X-0.170000X-0.140000X0.170000X-0.140000X0.170000X0.140000X0*%
%ADD11RoundRect,0.140000X0.170000X-0.140000X0.170000X0.140000X-0.170000X0.140000X-0.170000X-0.140000X0*%
%ADD12C,0.250000*%
%ADD13R,0.400000X1.900000*%
%ADD14R,1.450000X0.600000*%
%ADD15R,1.450000X0.300000*%
%ADD16RoundRect,0.150000X0.512500X0.150000X-0.512500X0.150000X-0.512500X-0.150000X0.512500X-0.150000X0*%
%ADD17RoundRect,0.135000X0.135000X0.185000X-0.135000X0.185000X-0.135000X-0.185000X0.135000X-0.185000X0*%
%ADD18RoundRect,0.218750X-0.218750X-0.256250X0.218750X-0.256250X0.218750X0.256250X-0.218750X0.256250X0*%
%ADD19RoundRect,0.135000X0.185000X-0.135000X0.185000X0.135000X-0.185000X0.135000X-0.185000X-0.135000X0*%
%ADD20R,0.500000X0.320000*%
%ADD21R,1.050000X0.650000*%
%ADD22R,1.100000X1.100000*%
%ADD23RoundRect,0.135000X-0.135000X-0.185000X0.135000X-0.185000X0.135000X0.185000X-0.135000X0.185000X0*%
%ADD24RoundRect,0.250000X-0.300000X0.300000X-0.300000X-0.300000X0.300000X-0.300000X0.300000X0.300000X0*%
%ADD25RoundRect,0.062500X-0.062500X0.475000X-0.062500X-0.475000X0.062500X-0.475000X0.062500X0.475000X0*%
%ADD26RoundRect,0.062500X-0.475000X0.062500X-0.475000X-0.062500X0.475000X-0.062500X0.475000X0.062500X0*%
%ADD27RoundRect,0.218750X-0.256250X0.218750X-0.256250X-0.218750X0.256250X-0.218750X0.256250X0.218750X0*%
%ADD28RoundRect,0.140000X0.140000X0.170000X-0.140000X0.170000X-0.140000X-0.170000X0.140000X-0.170000X0*%
%ADD29RoundRect,0.250000X-0.275000X-0.275000X0.275000X-0.275000X0.275000X0.275000X-0.275000X0.275000X0*%
%ADD30RoundRect,0.050000X-0.337400X-0.050000X0.337400X-0.050000X0.337400X0.050000X-0.337400X0.050000X0*%
%ADD31RoundRect,0.050000X-0.050000X-0.337400X0.050000X-0.337400X0.050000X0.337400X-0.050000X0.337400X0*%
%ADD32RoundRect,0.050200X-0.050200X-0.337200X0.050200X-0.337200X0.050200X0.337200X-0.050200X0.337200X0*%
%ADD33RoundRect,0.140000X-0.140000X-0.170000X0.140000X-0.170000X0.140000X0.170000X-0.140000X0.170000X0*%
%ADD34RoundRect,0.135000X-0.185000X0.135000X-0.185000X-0.135000X0.185000X-0.135000X0.185000X0.135000X0*%
G04 APERTURE END LIST*
D10*
X109800000Y-76420000D03*
X109800000Y-77380000D03*
D11*
X97800000Y-50680000D03*
X97800000Y-49720000D03*
D12*
X99600000Y-65000000D03*
X100000000Y-65000000D03*
X99600000Y-65400000D03*
X100000000Y-65400000D03*
D11*
X87800000Y-65680000D03*
X87800000Y-64720000D03*
D13*
X109899999Y-48162499D03*
X111099999Y-48162499D03*
X112299999Y-48162499D03*
D11*
X87800000Y-60680000D03*
X87800000Y-59720000D03*
D14*
X115154999Y-69349999D03*
X115154999Y-68549999D03*
D15*
X115154999Y-67349999D03*
X115154999Y-66349999D03*
X115154999Y-65849999D03*
X115154999Y-64849999D03*
D14*
X115154999Y-63649999D03*
X115154999Y-62849999D03*
X115154999Y-62849999D03*
X115154999Y-63649999D03*
D15*
X115154999Y-64349999D03*
X115154999Y-65349999D03*
X115154999Y-66849999D03*
X115154999Y-67849999D03*
D14*
X115154999Y-68549999D03*
X115154999Y-69349999D03*
D12*
X89600000Y-50000000D03*
X90000000Y-50000000D03*
X89600000Y-50400000D03*
X90000000Y-50400000D03*
D11*
X82800000Y-50680000D03*
X82800000Y-49720000D03*
X103600000Y-73380000D03*
X103600000Y-72420000D03*
D12*
X84600000Y-70000000D03*
X85000000Y-70000000D03*
X84600000Y-70400000D03*
X85000000Y-70400000D03*
D16*
X107337500Y-77050000D03*
X107337500Y-76100000D03*
X107337500Y-75150000D03*
X105062500Y-75150000D03*
X105062500Y-77050000D03*
D12*
X89600000Y-70000000D03*
X90000000Y-70000000D03*
X89600000Y-70400000D03*
X90000000Y-70400000D03*
X99600000Y-70000000D03*
X100000000Y-70000000D03*
X99600000Y-70400000D03*
X100000000Y-70400000D03*
X94600000Y-50000000D03*
X95000000Y-50000000D03*
X94600000Y-50400000D03*
X95000000Y-50400000D03*
D11*
X77800000Y-50680000D03*
X77800000Y-49720000D03*
X102600000Y-77380000D03*
X102600000Y-76420000D03*
D17*
X104435000Y-55475000D03*
X103415000Y-55475000D03*
D18*
X111812500Y-77000000D03*
X113387500Y-77000000D03*
D19*
X108300000Y-48872500D03*
X108300000Y-47852500D03*
D11*
X103600000Y-77380000D03*
X103600000Y-76420000D03*
D20*
X103349999Y-49449999D03*
X103349999Y-49949999D03*
X103349999Y-50449999D03*
X103349999Y-50949999D03*
X104349999Y-50949999D03*
X104349999Y-50449999D03*
X104349999Y-49949999D03*
X104349999Y-49449999D03*
D12*
X99600000Y-60000000D03*
X100000000Y-60000000D03*
X99600000Y-60400000D03*
X100000000Y-60400000D03*
X89600000Y-60000000D03*
X90000000Y-60000000D03*
X89600000Y-60400000D03*
X90000000Y-60400000D03*
X79600000Y-50000000D03*
X80000000Y-50000000D03*
X79600000Y-50400000D03*
X80000000Y-50400000D03*
D17*
X113210000Y-67300000D03*
X112190000Y-67300000D03*
D11*
X82800000Y-60680000D03*
X82800000Y-59720000D03*
D17*
X104435000Y-51975000D03*
X103415000Y-51975000D03*
D21*
X120374999Y-53674999D03*
X116224999Y-53674999D03*
X120374999Y-51524999D03*
X116249999Y-51524999D03*
D12*
X84600000Y-60000000D03*
X85000000Y-60000000D03*
X84600000Y-60400000D03*
X85000000Y-60400000D03*
D22*
X110299999Y-70399999D03*
X110299999Y-67599999D03*
D23*
X111990000Y-75600000D03*
X113010000Y-75600000D03*
D11*
X77800000Y-65680000D03*
X77800000Y-64720000D03*
D24*
X110770000Y-52092500D03*
X109400000Y-52092500D03*
X108030000Y-52092500D03*
X110770000Y-53462500D03*
X109400000Y-53462500D03*
X108030000Y-53462500D03*
X110770000Y-54832500D03*
X109400000Y-54832500D03*
X108030000Y-54832500D03*
D25*
X111400000Y-50625000D03*
X110900000Y-50625000D03*
X110400000Y-50625000D03*
X109900000Y-50625000D03*
X109400000Y-50625000D03*
X108900000Y-50625000D03*
X108400000Y-50625000D03*
X107900000Y-50625000D03*
X107400000Y-50625000D03*
D26*
X106562500Y-51462500D03*
X106562500Y-51962500D03*
X106562500Y-52462500D03*
X106562500Y-52962500D03*
X106562500Y-53462500D03*
X106562500Y-53962500D03*
X106562500Y-54462500D03*
X106562500Y-54962500D03*
X106562500Y-55462500D03*
D25*
X107400000Y-56300000D03*
X107900000Y-56300000D03*
X108400000Y-56300000D03*
X108900000Y-56300000D03*
X109400000Y-56300000D03*
X109900000Y-56300000D03*
X110400000Y-56300000D03*
X110900000Y-56300000D03*
X111400000Y-56300000D03*
D26*
X112237500Y-55462500D03*
X112237500Y-54962500D03*
X112237500Y-54462500D03*
X112237500Y-53962500D03*
X112237500Y-53462500D03*
X112237500Y-52962500D03*
X112237500Y-52462500D03*
X112237500Y-51962500D03*
X112237500Y-51462500D03*
D12*
X89600000Y-65000000D03*
X90000000Y-65000000D03*
X89600000Y-65400000D03*
X90000000Y-65400000D03*
X94600000Y-70000000D03*
X95000000Y-70000000D03*
X94600000Y-70400000D03*
X95000000Y-70400000D03*
X79600000Y-65000000D03*
X80000000Y-65000000D03*
X79600000Y-65400000D03*
X80000000Y-65400000D03*
X79600000Y-60000000D03*
X80000000Y-60000000D03*
X79600000Y-60400000D03*
X80000000Y-60400000D03*
D11*
X103700000Y-63470000D03*
X103700000Y-62510000D03*
D17*
X113210000Y-64400000D03*
X112190000Y-64400000D03*
D12*
X79600000Y-55000000D03*
X80000000Y-55000000D03*
X79600000Y-55400000D03*
X80000000Y-55400000D03*
D11*
X87800000Y-50680000D03*
X87800000Y-49720000D03*
D19*
X108100000Y-63510000D03*
X108100000Y-62490000D03*
D11*
X82800000Y-55680000D03*
X82800000Y-54720000D03*
D20*
X103349999Y-52974999D03*
X103349999Y-53474999D03*
X103349999Y-53974999D03*
X103349999Y-54474999D03*
X104349999Y-54474999D03*
X104349999Y-53974999D03*
X104349999Y-53474999D03*
X104349999Y-52974999D03*
D11*
X109800000Y-73380000D03*
X109800000Y-72420000D03*
D12*
X94600000Y-65000000D03*
X95000000Y-65000000D03*
X94600000Y-65400000D03*
X95000000Y-65400000D03*
D19*
X113975000Y-51960000D03*
X113975000Y-50940000D03*
D16*
X107337500Y-73050000D03*
X107337500Y-72100000D03*
X107337500Y-71150000D03*
X105062500Y-71150000D03*
X105062500Y-73050000D03*
D11*
X87800000Y-55680000D03*
X87800000Y-54720000D03*
X87800000Y-70680000D03*
X87800000Y-69720000D03*
D23*
X111990000Y-72800000D03*
X113010000Y-72800000D03*
D27*
X112700000Y-68912500D03*
X112700000Y-70487500D03*
D11*
X97800000Y-70680000D03*
X97800000Y-69720000D03*
D12*
X84600000Y-55000000D03*
X85000000Y-55000000D03*
X84600000Y-55400000D03*
X85000000Y-55400000D03*
D11*
X92800000Y-65680000D03*
X92800000Y-64720000D03*
D12*
X94600000Y-60000000D03*
X95000000Y-60000000D03*
X94600000Y-60400000D03*
X95000000Y-60400000D03*
D11*
X82800000Y-70680000D03*
X82800000Y-69720000D03*
D28*
X108380000Y-46662500D03*
X107420000Y-46662500D03*
D29*
X105262400Y-66350000D03*
X105262400Y-67650000D03*
X106562400Y-66350000D03*
X106562400Y-67650000D03*
D30*
X103924800Y-65800000D03*
X103924800Y-66200000D03*
X103924800Y-66600000D03*
X103924800Y-67000000D03*
X103924800Y-67400000D03*
X103924800Y-67800000D03*
X103924800Y-68200000D03*
D31*
X104712400Y-68987600D03*
X105112400Y-68987600D03*
X105512400Y-68987600D03*
D32*
X105913600Y-68987600D03*
D31*
X106312400Y-68987600D03*
X106712400Y-68987600D03*
X107112400Y-68987600D03*
D30*
X107900000Y-68200000D03*
X107900000Y-67800000D03*
X107900000Y-67400000D03*
X107900000Y-67000000D03*
X107900000Y-66600000D03*
X107900000Y-66200000D03*
X107900000Y-65800000D03*
D31*
X107112400Y-65012400D03*
X106712400Y-65012400D03*
X106312400Y-65012400D03*
X105912400Y-65012400D03*
X105512400Y-65012400D03*
X105112400Y-65012400D03*
X104712400Y-65012400D03*
D11*
X77800000Y-55680000D03*
X77800000Y-54720000D03*
X102600000Y-73380000D03*
X102600000Y-72420000D03*
X107000000Y-48842500D03*
X107000000Y-47882500D03*
D12*
X84600000Y-65000000D03*
X85000000Y-65000000D03*
X84600000Y-65400000D03*
X85000000Y-65400000D03*
D11*
X82800000Y-65680000D03*
X82800000Y-64720000D03*
X105000000Y-63470000D03*
X105000000Y-62510000D03*
X77800000Y-70680000D03*
X77800000Y-69720000D03*
D12*
X79600000Y-70000000D03*
X80000000Y-70000000D03*
X79600000Y-70400000D03*
X80000000Y-70400000D03*
D11*
X92800000Y-55680000D03*
X92800000Y-54720000D03*
X92800000Y-50680000D03*
X92800000Y-49720000D03*
D21*
X116224999Y-57124999D03*
X120374999Y-57124999D03*
X116224999Y-59274999D03*
X120349999Y-59274999D03*
D11*
X92800000Y-60680000D03*
X92800000Y-59720000D03*
D33*
X108520000Y-58032500D03*
X109480000Y-58032500D03*
D28*
X111780000Y-58062500D03*
X110820000Y-58062500D03*
X107180000Y-58062500D03*
X106220000Y-58062500D03*
D11*
X97800000Y-65680000D03*
X97800000Y-64720000D03*
D12*
X99600000Y-55000000D03*
X100000000Y-55000000D03*
X99600000Y-55400000D03*
X100000000Y-55400000D03*
D34*
X106300000Y-62480000D03*
X106300000Y-63500000D03*
D12*
X89600000Y-55000000D03*
X90000000Y-55000000D03*
X89600000Y-55400000D03*
X90000000Y-55400000D03*
D11*
X77800000Y-60680000D03*
X77800000Y-59720000D03*
X97800000Y-60680000D03*
X97800000Y-59720000D03*
D12*
X84600000Y-50000000D03*
X85000000Y-50000000D03*
X84600000Y-50400000D03*
X85000000Y-50400000D03*
D11*
X97800000Y-55680000D03*
X97800000Y-54720000D03*
D10*
X108800000Y-76420000D03*
X108800000Y-77380000D03*
D18*
X111812500Y-74200000D03*
X113387500Y-74200000D03*
D12*
X94600000Y-55000000D03*
X95000000Y-55000000D03*
X94600000Y-55400000D03*
X95000000Y-55400000D03*
D11*
X92800000Y-70680000D03*
X92800000Y-69720000D03*
X108800000Y-73380000D03*
X108800000Y-72420000D03*
D12*
X99600000Y-50000000D03*
X100000000Y-50000000D03*
X99600000Y-50400000D03*
X100000000Y-50400000D03*
D11*
X113950000Y-49630000D03*
X113950000Y-48670000D03*
M02*
