G04 #@! TF.GenerationSoftware,KiCad,Pcbnew,(7.0.0)*
G04 #@! TF.CreationDate,2024-04-08T21:26:30+08:00*
G04 #@! TF.ProjectId,LocateMagnet,4c6f6361-7465-44d6-9167-6e65742e6b69,2.0*
G04 #@! TF.SameCoordinates,Original*
G04 #@! TF.FileFunction,Legend,Top*
G04 #@! TF.FilePolarity,Positive*
%FSLAX46Y46*%
G04 Gerber Fmt 4.6, Leading zero omitted, Abs format (unit mm)*
G04 Created by KiCad (PCBNEW (7.0.0)) date 2024-04-08 21:26:30*
%MOMM*%
%LPD*%
G01*
G04 APERTURE LIST*
G04 Aperture macros list*
%AMRoundRect*
0 Rectangle with rounded corners*
0 $1 Rounding radius*
0 $2 $3 $4 $5 $6 $7 $8 $9 X,Y pos of 4 corners*
0 Add a 4 corners polygon primitive as box body*
4,1,4,$2,$3,$4,$5,$6,$7,$8,$9,$2,$3,0*
0 Add four circle primitives for the rounded corners*
1,1,$1+$1,$2,$3*
1,1,$1+$1,$4,$5*
1,1,$1+$1,$6,$7*
1,1,$1+$1,$8,$9*
0 Add four rect primitives between the rounded corners*
20,1,$1+$1,$2,$3,$4,$5,0*
20,1,$1+$1,$4,$5,$6,$7,0*
20,1,$1+$1,$6,$7,$8,$9,0*
20,1,$1+$1,$8,$9,$2,$3,0*%
G04 Aperture macros list end*
%ADD10C,0.150000*%
%ADD11C,0.100000*%
%ADD12C,0.120000*%
%ADD13RoundRect,0.140000X-0.170000X0.140000X-0.170000X-0.140000X0.170000X-0.140000X0.170000X0.140000X0*%
%ADD14RoundRect,0.140000X0.170000X-0.140000X0.170000X0.140000X-0.170000X0.140000X-0.170000X-0.140000X0*%
%ADD15C,0.250000*%
%ADD16R,0.400000X1.900000*%
%ADD17C,0.650000*%
%ADD18R,1.450000X0.600000*%
%ADD19R,1.450000X0.300000*%
%ADD20O,2.100000X1.000000*%
%ADD21O,1.600000X1.000000*%
%ADD22RoundRect,0.150000X0.512500X0.150000X-0.512500X0.150000X-0.512500X-0.150000X0.512500X-0.150000X0*%
%ADD23C,3.200000*%
%ADD24RoundRect,0.135000X0.135000X0.185000X-0.135000X0.185000X-0.135000X-0.185000X0.135000X-0.185000X0*%
%ADD25RoundRect,0.218750X-0.218750X-0.256250X0.218750X-0.256250X0.218750X0.256250X-0.218750X0.256250X0*%
%ADD26RoundRect,0.135000X0.185000X-0.135000X0.185000X0.135000X-0.185000X0.135000X-0.185000X-0.135000X0*%
%ADD27R,0.500000X0.320000*%
%ADD28R,1.050000X0.650000*%
%ADD29R,1.100000X1.100000*%
%ADD30RoundRect,0.135000X-0.135000X-0.185000X0.135000X-0.185000X0.135000X0.185000X-0.135000X0.185000X0*%
%ADD31RoundRect,0.062500X-0.062500X0.475000X-0.062500X-0.475000X0.062500X-0.475000X0.062500X0.475000X0*%
%ADD32RoundRect,0.062500X-0.475000X0.062500X-0.475000X-0.062500X0.475000X-0.062500X0.475000X0.062500X0*%
%ADD33R,4.100000X4.100000*%
%ADD34RoundRect,0.218750X-0.256250X0.218750X-0.256250X-0.218750X0.256250X-0.218750X0.256250X0.218750X0*%
%ADD35RoundRect,0.140000X0.140000X0.170000X-0.140000X0.170000X-0.140000X-0.170000X0.140000X-0.170000X0*%
%ADD36RoundRect,0.050000X-0.337400X-0.050000X0.337400X-0.050000X0.337400X0.050000X-0.337400X0.050000X0*%
%ADD37RoundRect,0.050000X-0.050000X-0.337400X0.050000X-0.337400X0.050000X0.337400X-0.050000X0.337400X0*%
%ADD38RoundRect,0.050200X-0.050200X-0.337200X0.050200X-0.337200X0.050200X0.337200X-0.050200X0.337200X0*%
%ADD39R,2.800000X2.800000*%
%ADD40RoundRect,0.140000X-0.140000X-0.170000X0.140000X-0.170000X0.140000X0.170000X-0.140000X0.170000X0*%
%ADD41RoundRect,0.135000X-0.185000X0.135000X-0.185000X-0.135000X0.185000X-0.135000X0.185000X0.135000X0*%
G04 APERTURE END LIST*
D10*
X94800000Y-74000000D02*
X94800000Y-73500000D01*
X100350000Y-47200000D02*
X102850000Y-47200000D01*
X99800000Y-74000000D02*
X94800000Y-74000000D01*
X99850000Y-46700000D02*
X99850000Y-44200000D01*
X102850000Y-47200000D02*
X102450000Y-46800000D01*
X102850000Y-47200000D02*
X102450000Y-47600000D01*
X99800000Y-74000000D02*
X99800000Y-73500000D01*
X100350000Y-47200000D02*
G75*
G03*
X100350000Y-47200000I-500000J0D01*
G01*
X99850000Y-44200000D02*
X99450000Y-44600000D01*
X99850001Y-47200000D02*
G75*
G03*
X99850001Y-47200000I-1J0D01*
G01*
X99850000Y-44200000D02*
X100250000Y-44600000D01*
X99450000Y-44600000D02*
X99850000Y-44200000D01*
X96214285Y-72682380D02*
X95738095Y-72682380D01*
X95738095Y-72682380D02*
X95690476Y-73158571D01*
X95690476Y-73158571D02*
X95738095Y-73110952D01*
X95738095Y-73110952D02*
X95833333Y-73063333D01*
X95833333Y-73063333D02*
X96071428Y-73063333D01*
X96071428Y-73063333D02*
X96166666Y-73110952D01*
X96166666Y-73110952D02*
X96214285Y-73158571D01*
X96214285Y-73158571D02*
X96261904Y-73253809D01*
X96261904Y-73253809D02*
X96261904Y-73491904D01*
X96261904Y-73491904D02*
X96214285Y-73587142D01*
X96214285Y-73587142D02*
X96166666Y-73634761D01*
X96166666Y-73634761D02*
X96071428Y-73682380D01*
X96071428Y-73682380D02*
X95833333Y-73682380D01*
X95833333Y-73682380D02*
X95738095Y-73634761D01*
X95738095Y-73634761D02*
X95690476Y-73587142D01*
X96690476Y-73682380D02*
X96690476Y-73015714D01*
X96690476Y-73110952D02*
X96738095Y-73063333D01*
X96738095Y-73063333D02*
X96833333Y-73015714D01*
X96833333Y-73015714D02*
X96976190Y-73015714D01*
X96976190Y-73015714D02*
X97071428Y-73063333D01*
X97071428Y-73063333D02*
X97119047Y-73158571D01*
X97119047Y-73158571D02*
X97119047Y-73682380D01*
X97119047Y-73158571D02*
X97166666Y-73063333D01*
X97166666Y-73063333D02*
X97261904Y-73015714D01*
X97261904Y-73015714D02*
X97404761Y-73015714D01*
X97404761Y-73015714D02*
X97500000Y-73063333D01*
X97500000Y-73063333D02*
X97547619Y-73158571D01*
X97547619Y-73158571D02*
X97547619Y-73682380D01*
X98023809Y-73682380D02*
X98023809Y-73015714D01*
X98023809Y-73110952D02*
X98071428Y-73063333D01*
X98071428Y-73063333D02*
X98166666Y-73015714D01*
X98166666Y-73015714D02*
X98309523Y-73015714D01*
X98309523Y-73015714D02*
X98404761Y-73063333D01*
X98404761Y-73063333D02*
X98452380Y-73158571D01*
X98452380Y-73158571D02*
X98452380Y-73682380D01*
X98452380Y-73158571D02*
X98499999Y-73063333D01*
X98499999Y-73063333D02*
X98595237Y-73015714D01*
X98595237Y-73015714D02*
X98738094Y-73015714D01*
X98738094Y-73015714D02*
X98833333Y-73063333D01*
X98833333Y-73063333D02*
X98880952Y-73158571D01*
X98880952Y-73158571D02*
X98880952Y-73682380D01*
D11*
X107090476Y-61025904D02*
X107090476Y-61673523D01*
X107090476Y-61673523D02*
X107128571Y-61749714D01*
X107128571Y-61749714D02*
X107166666Y-61787809D01*
X107166666Y-61787809D02*
X107242857Y-61825904D01*
X107242857Y-61825904D02*
X107395238Y-61825904D01*
X107395238Y-61825904D02*
X107471428Y-61787809D01*
X107471428Y-61787809D02*
X107509523Y-61749714D01*
X107509523Y-61749714D02*
X107547619Y-61673523D01*
X107547619Y-61673523D02*
X107547619Y-61025904D01*
X107928571Y-61825904D02*
X107928571Y-61025904D01*
X107928571Y-61025904D02*
X108233333Y-61025904D01*
X108233333Y-61025904D02*
X108309523Y-61064000D01*
X108309523Y-61064000D02*
X108347618Y-61102095D01*
X108347618Y-61102095D02*
X108385714Y-61178285D01*
X108385714Y-61178285D02*
X108385714Y-61292571D01*
X108385714Y-61292571D02*
X108347618Y-61368761D01*
X108347618Y-61368761D02*
X108309523Y-61406857D01*
X108309523Y-61406857D02*
X108233333Y-61444952D01*
X108233333Y-61444952D02*
X107928571Y-61444952D01*
X109147618Y-61064000D02*
X109071428Y-61025904D01*
X109071428Y-61025904D02*
X108957142Y-61025904D01*
X108957142Y-61025904D02*
X108842856Y-61064000D01*
X108842856Y-61064000D02*
X108766666Y-61140190D01*
X108766666Y-61140190D02*
X108728571Y-61216380D01*
X108728571Y-61216380D02*
X108690475Y-61368761D01*
X108690475Y-61368761D02*
X108690475Y-61483047D01*
X108690475Y-61483047D02*
X108728571Y-61635428D01*
X108728571Y-61635428D02*
X108766666Y-61711619D01*
X108766666Y-61711619D02*
X108842856Y-61787809D01*
X108842856Y-61787809D02*
X108957142Y-61825904D01*
X108957142Y-61825904D02*
X109033333Y-61825904D01*
X109033333Y-61825904D02*
X109147618Y-61787809D01*
X109147618Y-61787809D02*
X109185714Y-61749714D01*
X109185714Y-61749714D02*
X109185714Y-61483047D01*
X109185714Y-61483047D02*
X109033333Y-61483047D01*
D10*
G36*
X117769858Y-49610639D02*
G01*
X117781218Y-49621999D01*
X117796428Y-49652419D01*
X117796428Y-49702723D01*
X117781216Y-49733144D01*
X117769857Y-49744503D01*
X117739437Y-49759714D01*
X117675300Y-49759714D01*
X117657255Y-49757844D01*
X117653555Y-49759714D01*
X117603571Y-49759714D01*
X117603571Y-49595428D01*
X117739437Y-49595428D01*
X117769858Y-49610639D01*
G37*
G36*
X119452500Y-50698214D02*
G01*
X116947500Y-50698214D01*
X116947500Y-49845838D01*
X117451201Y-49845838D01*
X117453571Y-49851028D01*
X117453571Y-50131210D01*
X117462814Y-50162688D01*
X117496100Y-50191530D01*
X117539695Y-50197798D01*
X117579759Y-50179502D01*
X117603571Y-50142450D01*
X117603571Y-49909714D01*
X117632379Y-49909714D01*
X117816168Y-50172270D01*
X117841792Y-50192758D01*
X117885601Y-50197298D01*
X117924910Y-50177432D01*
X117947239Y-50139468D01*
X117945499Y-50095459D01*
X117804943Y-49894665D01*
X117839415Y-49877429D01*
X117851746Y-49874747D01*
X117866370Y-49860122D01*
X117881491Y-49846057D01*
X117881853Y-49844639D01*
X117889241Y-49837251D01*
X117900089Y-49830809D01*
X117909336Y-49812313D01*
X117919235Y-49794186D01*
X117919130Y-49792727D01*
X117936705Y-49757578D01*
X117946428Y-49742450D01*
X117946428Y-49727121D01*
X117949142Y-49712038D01*
X117946428Y-49705494D01*
X117946428Y-49643105D01*
X118022285Y-49643105D01*
X118024999Y-49649649D01*
X118024999Y-49687822D01*
X118023069Y-49705701D01*
X118029923Y-49719410D01*
X118034242Y-49734117D01*
X118039597Y-49738757D01*
X118057283Y-49774130D01*
X118059966Y-49786461D01*
X118074590Y-49801085D01*
X118088656Y-49816206D01*
X118090073Y-49816568D01*
X118097459Y-49823954D01*
X118103904Y-49834805D01*
X118122406Y-49844056D01*
X118140527Y-49853950D01*
X118141986Y-49853845D01*
X118168795Y-49867249D01*
X118174730Y-49873561D01*
X118188108Y-49876905D01*
X118190389Y-49878046D01*
X118198525Y-49879510D01*
X118302395Y-49905478D01*
X118341285Y-49924923D01*
X118352645Y-49936283D01*
X118367856Y-49966705D01*
X118367856Y-49988437D01*
X118352645Y-50018859D01*
X118341286Y-50030218D01*
X118310867Y-50045428D01*
X118197885Y-50045428D01*
X118113487Y-50017296D01*
X118080701Y-50016111D01*
X118042814Y-50038568D01*
X118023082Y-50077944D01*
X118027770Y-50121738D01*
X118055390Y-50156045D01*
X118153077Y-50188606D01*
X118163692Y-50195428D01*
X118184372Y-50195428D01*
X118205011Y-50196174D01*
X118206270Y-50195428D01*
X118324534Y-50195428D01*
X118342414Y-50197359D01*
X118356126Y-50190502D01*
X118370831Y-50186185D01*
X118375470Y-50180831D01*
X118410845Y-50163143D01*
X118423176Y-50160461D01*
X118437790Y-50145846D01*
X118452920Y-50131773D01*
X118453282Y-50130353D01*
X118460669Y-50122966D01*
X118471519Y-50116523D01*
X118480765Y-50098029D01*
X118490665Y-50079899D01*
X118490560Y-50078438D01*
X118508131Y-50043295D01*
X118517856Y-50028164D01*
X118517856Y-50012833D01*
X118520570Y-49997750D01*
X118517856Y-49991206D01*
X118517856Y-49953041D01*
X118519787Y-49935157D01*
X118512930Y-49921444D01*
X118508613Y-49906740D01*
X118503258Y-49902100D01*
X118485572Y-49866727D01*
X118482890Y-49854397D01*
X118468268Y-49839774D01*
X118454201Y-49824651D01*
X118452782Y-49824288D01*
X118445397Y-49816903D01*
X118438952Y-49806051D01*
X118420444Y-49796797D01*
X118402330Y-49786906D01*
X118400869Y-49787010D01*
X118374060Y-49773606D01*
X118368126Y-49767294D01*
X118354746Y-49763948D01*
X118352468Y-49762810D01*
X118344340Y-49761347D01*
X118240461Y-49735377D01*
X118201568Y-49715931D01*
X118190209Y-49704572D01*
X118174999Y-49674152D01*
X118174999Y-49652419D01*
X118190210Y-49621997D01*
X118201570Y-49610638D01*
X118231990Y-49595428D01*
X118344971Y-49595428D01*
X118429367Y-49623561D01*
X118462153Y-49624747D01*
X118500041Y-49602290D01*
X118519774Y-49562914D01*
X118516417Y-49531552D01*
X118536915Y-49531552D01*
X118555211Y-49571616D01*
X118592263Y-49595428D01*
X118710714Y-49595428D01*
X118710714Y-50131210D01*
X118719957Y-50162688D01*
X118753243Y-50191530D01*
X118796838Y-50197798D01*
X118836902Y-50179502D01*
X118860714Y-50142450D01*
X118860714Y-49595428D01*
X118967925Y-49595428D01*
X118999403Y-49586185D01*
X119028245Y-49552899D01*
X119034513Y-49509304D01*
X119016217Y-49469240D01*
X118979165Y-49445428D01*
X118791074Y-49445428D01*
X118774590Y-49443058D01*
X118769400Y-49445428D01*
X118603503Y-49445428D01*
X118572025Y-49454671D01*
X118543183Y-49487957D01*
X118536915Y-49531552D01*
X118516417Y-49531552D01*
X118515086Y-49519120D01*
X118487466Y-49484813D01*
X118389778Y-49452249D01*
X118379164Y-49445428D01*
X118358485Y-49445428D01*
X118337845Y-49444682D01*
X118336586Y-49445428D01*
X118218319Y-49445428D01*
X118200440Y-49443498D01*
X118186729Y-49450353D01*
X118172025Y-49454671D01*
X118167385Y-49460025D01*
X118132011Y-49477712D01*
X118119681Y-49480395D01*
X118105056Y-49495019D01*
X118089936Y-49509085D01*
X118089573Y-49510502D01*
X118082185Y-49517890D01*
X118071338Y-49524333D01*
X118062094Y-49542820D01*
X118052191Y-49560956D01*
X118052295Y-49562416D01*
X118034721Y-49597563D01*
X118024999Y-49612692D01*
X118024999Y-49628022D01*
X118022285Y-49643105D01*
X117946428Y-49643105D01*
X117946428Y-49638748D01*
X117948358Y-49620869D01*
X117941502Y-49607158D01*
X117937185Y-49592454D01*
X117931830Y-49587814D01*
X117914143Y-49552440D01*
X117911461Y-49540110D01*
X117896836Y-49525485D01*
X117882771Y-49510365D01*
X117881353Y-49510002D01*
X117873965Y-49502614D01*
X117867523Y-49491767D01*
X117849035Y-49482523D01*
X117830900Y-49472620D01*
X117829439Y-49472724D01*
X117794292Y-49455150D01*
X117779164Y-49445428D01*
X117763834Y-49445428D01*
X117748751Y-49442714D01*
X117742207Y-49445428D01*
X117533931Y-49445428D01*
X117517447Y-49443058D01*
X117502294Y-49449977D01*
X117486311Y-49454671D01*
X117482574Y-49458983D01*
X117477383Y-49461354D01*
X117468375Y-49475370D01*
X117457469Y-49487957D01*
X117456657Y-49493603D01*
X117453571Y-49498406D01*
X117453571Y-49515068D01*
X117451201Y-49531552D01*
X117453571Y-49536742D01*
X117453571Y-49829354D01*
X117451201Y-49845838D01*
X116947500Y-49845838D01*
X116947500Y-49101786D01*
X119452500Y-49101786D01*
X119452500Y-50698214D01*
G37*
X103192857Y-46682380D02*
X103859523Y-47682380D01*
X103859523Y-46682380D02*
X103192857Y-47682380D01*
G36*
X119466786Y-56298214D02*
G01*
X116933215Y-56298214D01*
X116933215Y-55446670D01*
X117437906Y-55446670D01*
X117439286Y-55465959D01*
X117439286Y-55731210D01*
X117448529Y-55762688D01*
X117481815Y-55791530D01*
X117525410Y-55797798D01*
X117565474Y-55779502D01*
X117589286Y-55742450D01*
X117589286Y-55494351D01*
X117591885Y-55491751D01*
X117803612Y-55774053D01*
X117829893Y-55793690D01*
X117873827Y-55796792D01*
X117912464Y-55775649D01*
X117933538Y-55736974D01*
X117933145Y-55731552D01*
X118036916Y-55731552D01*
X118043835Y-55746704D01*
X118048529Y-55762688D01*
X118052841Y-55766424D01*
X118055212Y-55771616D01*
X118069228Y-55780623D01*
X118081815Y-55791530D01*
X118087461Y-55792341D01*
X118092264Y-55795428D01*
X118108926Y-55795428D01*
X118125410Y-55797798D01*
X118130600Y-55795428D01*
X118410782Y-55795428D01*
X118442260Y-55786185D01*
X118471102Y-55752899D01*
X118477370Y-55709304D01*
X118459074Y-55669240D01*
X118422022Y-55645428D01*
X118189286Y-55645428D01*
X118189286Y-55481142D01*
X118325068Y-55481142D01*
X118356546Y-55471899D01*
X118385388Y-55438613D01*
X118391656Y-55395018D01*
X118373360Y-55354954D01*
X118336308Y-55331142D01*
X118189286Y-55331142D01*
X118189286Y-55195428D01*
X118410782Y-55195428D01*
X118442260Y-55186185D01*
X118471102Y-55152899D01*
X118472653Y-55142115D01*
X118496330Y-55142115D01*
X118696428Y-55456554D01*
X118696428Y-55731210D01*
X118705671Y-55762688D01*
X118738957Y-55791530D01*
X118782552Y-55797798D01*
X118822616Y-55779502D01*
X118846428Y-55742450D01*
X118846428Y-55456555D01*
X119040491Y-55151597D01*
X119049593Y-55120078D01*
X119036995Y-55077875D01*
X119003581Y-55049182D01*
X118959958Y-55043108D01*
X118919976Y-55061583D01*
X118771428Y-55295016D01*
X118628914Y-55071066D01*
X118604216Y-55049472D01*
X118560650Y-55043009D01*
X118520505Y-55061126D01*
X118496527Y-55098071D01*
X118496330Y-55142115D01*
X118472653Y-55142115D01*
X118477370Y-55109304D01*
X118459074Y-55069240D01*
X118422022Y-55045428D01*
X118119646Y-55045428D01*
X118103162Y-55043058D01*
X118088009Y-55049977D01*
X118072026Y-55054671D01*
X118068289Y-55058983D01*
X118063098Y-55061354D01*
X118054090Y-55075370D01*
X118043184Y-55087957D01*
X118042372Y-55093603D01*
X118039286Y-55098406D01*
X118039286Y-55115068D01*
X118036916Y-55131552D01*
X118039286Y-55136742D01*
X118039286Y-55400782D01*
X118036916Y-55417266D01*
X118039286Y-55422456D01*
X118039286Y-55715068D01*
X118036916Y-55731552D01*
X117933145Y-55731552D01*
X117930356Y-55693045D01*
X117699028Y-55384608D01*
X117917800Y-55165837D01*
X117933523Y-55137043D01*
X117930380Y-55093112D01*
X117903986Y-55057853D01*
X117862719Y-55042461D01*
X117819682Y-55051823D01*
X117589286Y-55282219D01*
X117589286Y-55109646D01*
X117580043Y-55078168D01*
X117546757Y-55049326D01*
X117503162Y-55043058D01*
X117463098Y-55061354D01*
X117439286Y-55098406D01*
X117439286Y-55444143D01*
X117437906Y-55446670D01*
X116933215Y-55446670D01*
X116933215Y-54701786D01*
X119466786Y-54701786D01*
X119466786Y-56298214D01*
G37*
X98392857Y-46682380D02*
X99059523Y-46682380D01*
X99059523Y-46682380D02*
X98392857Y-47682380D01*
X98392857Y-47682380D02*
X99059523Y-47682380D01*
X99778571Y-43406190D02*
X99778571Y-43882380D01*
X99445238Y-42882380D02*
X99778571Y-43406190D01*
X99778571Y-43406190D02*
X100111904Y-42882380D01*
D12*
X110160000Y-76792164D02*
X110160000Y-77007836D01*
X109440000Y-76792164D02*
X109440000Y-77007836D01*
X97440000Y-50307836D02*
X97440000Y-50092164D01*
X98160000Y-50307836D02*
X98160000Y-50092164D01*
X99275000Y-65200000D02*
X99275000Y-65725000D01*
X99275000Y-65725000D02*
X100325000Y-65725000D01*
X100325000Y-64675000D02*
X99800000Y-64675000D01*
X100325000Y-65725000D02*
X100325000Y-64675000D01*
X87440000Y-65307836D02*
X87440000Y-65092164D01*
X88160000Y-65307836D02*
X88160000Y-65092164D01*
X109100000Y-46962500D02*
X109100000Y-48962500D01*
X109100000Y-48962500D02*
X109100000Y-49362500D01*
X109300000Y-46962500D02*
X110300000Y-46962500D01*
X109300000Y-48962500D02*
X109300000Y-46962500D01*
X109300000Y-48962500D02*
X109300000Y-49362500D01*
X110300000Y-49362500D02*
X109300000Y-49362500D01*
X110300000Y-49362500D02*
X110300000Y-49762500D01*
X112100000Y-46962500D02*
X112900000Y-46962500D01*
X112900000Y-46962500D02*
X112900000Y-48962500D01*
X112900000Y-48962500D02*
X112900000Y-49362500D01*
X112900000Y-49362500D02*
X112100000Y-49362500D01*
X87440000Y-60307836D02*
X87440000Y-60092164D01*
X88160000Y-60307836D02*
X88160000Y-60092164D01*
X117300000Y-70800000D02*
X119300000Y-70800000D01*
X121200000Y-70800000D02*
X123100000Y-70800000D01*
X123100000Y-70800000D02*
X123100000Y-61400000D01*
X117300000Y-61400000D02*
X119300000Y-61400000D01*
X121200000Y-61400000D02*
X123100000Y-61400000D01*
X89275000Y-50200000D02*
X89275000Y-50725000D01*
X89275000Y-50725000D02*
X90325000Y-50725000D01*
X90325000Y-49675000D02*
X89800000Y-49675000D01*
X90325000Y-50725000D02*
X90325000Y-49675000D01*
X82440000Y-50307836D02*
X82440000Y-50092164D01*
X83160000Y-50307836D02*
X83160000Y-50092164D01*
X103240000Y-73007836D02*
X103240000Y-72792164D01*
X103960000Y-73007836D02*
X103960000Y-72792164D01*
X84275000Y-70200000D02*
X84275000Y-70725000D01*
X84275000Y-70725000D02*
X85325000Y-70725000D01*
X85325000Y-69675000D02*
X84800000Y-69675000D01*
X85325000Y-70725000D02*
X85325000Y-69675000D01*
X106200000Y-77660000D02*
X108000000Y-77660000D01*
X106200000Y-77660000D02*
X105400000Y-77660000D01*
X106200000Y-74540000D02*
X107000000Y-74540000D01*
X106200000Y-74540000D02*
X105400000Y-74540000D01*
X89275000Y-70200000D02*
X89275000Y-70725000D01*
X89275000Y-70725000D02*
X90325000Y-70725000D01*
X90325000Y-69675000D02*
X89800000Y-69675000D01*
X90325000Y-70725000D02*
X90325000Y-69675000D01*
X99275000Y-70200000D02*
X99275000Y-70725000D01*
X99275000Y-70725000D02*
X100325000Y-70725000D01*
X100325000Y-69675000D02*
X99800000Y-69675000D01*
X100325000Y-70725000D02*
X100325000Y-69675000D01*
X94275000Y-50200000D02*
X94275000Y-50725000D01*
X94275000Y-50725000D02*
X95325000Y-50725000D01*
X95325000Y-49675000D02*
X94800000Y-49675000D01*
X95325000Y-50725000D02*
X95325000Y-49675000D01*
X77440000Y-50307836D02*
X77440000Y-50092164D01*
X78160000Y-50307836D02*
X78160000Y-50092164D01*
X102240000Y-77007836D02*
X102240000Y-76792164D01*
X102960000Y-77007836D02*
X102960000Y-76792164D01*
X104078641Y-55855000D02*
X103771359Y-55855000D01*
X104078641Y-55095000D02*
X103771359Y-55095000D01*
X111115000Y-76265000D02*
X111115000Y-77735000D01*
X111115000Y-77735000D02*
X113400000Y-77735000D01*
X113400000Y-76265000D02*
X111115000Y-76265000D01*
X107920000Y-48516141D02*
X107920000Y-48208859D01*
X108680000Y-48516141D02*
X108680000Y-48208859D01*
X103240000Y-77007836D02*
X103240000Y-76792164D01*
X103960000Y-77007836D02*
X103960000Y-76792164D01*
X104100000Y-49060000D02*
X103600000Y-49060000D01*
X104100000Y-51340000D02*
X103600000Y-51340000D01*
X99275000Y-60200000D02*
X99275000Y-60725000D01*
X99275000Y-60725000D02*
X100325000Y-60725000D01*
X100325000Y-59675000D02*
X99800000Y-59675000D01*
X100325000Y-60725000D02*
X100325000Y-59675000D01*
X89275000Y-60200000D02*
X89275000Y-60725000D01*
X89275000Y-60725000D02*
X90325000Y-60725000D01*
X90325000Y-59675000D02*
X89800000Y-59675000D01*
X90325000Y-60725000D02*
X90325000Y-59675000D01*
X79275000Y-50200000D02*
X79275000Y-50725000D01*
X79275000Y-50725000D02*
X80325000Y-50725000D01*
X80325000Y-49675000D02*
X79800000Y-49675000D01*
X80325000Y-50725000D02*
X80325000Y-49675000D01*
X112853641Y-67680000D02*
X112546359Y-67680000D01*
X112853641Y-66920000D02*
X112546359Y-66920000D01*
X82440000Y-60307836D02*
X82440000Y-60092164D01*
X83160000Y-60307836D02*
X83160000Y-60092164D01*
X104078641Y-52355000D02*
X103771359Y-52355000D01*
X104078641Y-51595000D02*
X103771359Y-51595000D01*
X120500000Y-52550000D02*
X120500000Y-52650000D01*
X120500000Y-50850000D02*
X116100000Y-50850000D01*
X116100000Y-54350000D02*
X120500000Y-54350000D01*
X116100000Y-52550000D02*
X116100000Y-52650000D01*
X84275000Y-60200000D02*
X84275000Y-60725000D01*
X84275000Y-60725000D02*
X85325000Y-60725000D01*
X85325000Y-59675000D02*
X84800000Y-59675000D01*
X85325000Y-60725000D02*
X85325000Y-59675000D01*
X109300000Y-71200000D02*
X111300000Y-71200000D01*
X109300000Y-71200000D02*
X109300000Y-67350000D01*
X111300000Y-71200000D02*
X111300000Y-67350000D01*
X112346359Y-75220000D02*
X112653641Y-75220000D01*
X112346359Y-75980000D02*
X112653641Y-75980000D01*
X77440000Y-65307836D02*
X77440000Y-65092164D01*
X78160000Y-65307836D02*
X78160000Y-65092164D01*
X106290000Y-50352500D02*
X107015000Y-50352500D01*
X112510000Y-51077500D02*
X112510000Y-50352500D01*
X106290000Y-51077500D02*
X106290000Y-50352500D01*
X112510000Y-55847500D02*
X112510000Y-56572500D01*
X106290000Y-55847500D02*
X106290000Y-56572500D01*
X112510000Y-56572500D02*
X111785000Y-56572500D01*
X106290000Y-56572500D02*
X107015000Y-56572500D01*
X89275000Y-65200000D02*
X89275000Y-65725000D01*
X89275000Y-65725000D02*
X90325000Y-65725000D01*
X90325000Y-64675000D02*
X89800000Y-64675000D01*
X90325000Y-65725000D02*
X90325000Y-64675000D01*
X94275000Y-70200000D02*
X94275000Y-70725000D01*
X94275000Y-70725000D02*
X95325000Y-70725000D01*
X95325000Y-69675000D02*
X94800000Y-69675000D01*
X95325000Y-70725000D02*
X95325000Y-69675000D01*
X79275000Y-65200000D02*
X79275000Y-65725000D01*
X79275000Y-65725000D02*
X80325000Y-65725000D01*
X80325000Y-64675000D02*
X79800000Y-64675000D01*
X80325000Y-65725000D02*
X80325000Y-64675000D01*
X79275000Y-60200000D02*
X79275000Y-60725000D01*
X79275000Y-60725000D02*
X80325000Y-60725000D01*
X80325000Y-59675000D02*
X79800000Y-59675000D01*
X80325000Y-60725000D02*
X80325000Y-59675000D01*
X103340000Y-63097836D02*
X103340000Y-62882164D01*
X104060000Y-63097836D02*
X104060000Y-62882164D01*
X112853641Y-64780000D02*
X112546359Y-64780000D01*
X112853641Y-64020000D02*
X112546359Y-64020000D01*
X79275000Y-55200000D02*
X79275000Y-55725000D01*
X79275000Y-55725000D02*
X80325000Y-55725000D01*
X80325000Y-54675000D02*
X79800000Y-54675000D01*
X80325000Y-55725000D02*
X80325000Y-54675000D01*
X87440000Y-50307836D02*
X87440000Y-50092164D01*
X88160000Y-50307836D02*
X88160000Y-50092164D01*
X107720000Y-63153641D02*
X107720000Y-62846359D01*
X108480000Y-63153641D02*
X108480000Y-62846359D01*
X82440000Y-55307836D02*
X82440000Y-55092164D01*
X83160000Y-55307836D02*
X83160000Y-55092164D01*
X104100000Y-52585000D02*
X103600000Y-52585000D01*
X104100000Y-54865000D02*
X103600000Y-54865000D01*
X109440000Y-73007836D02*
X109440000Y-72792164D01*
X110160000Y-73007836D02*
X110160000Y-72792164D01*
X94275000Y-65200000D02*
X94275000Y-65725000D01*
X94275000Y-65725000D02*
X95325000Y-65725000D01*
X95325000Y-64675000D02*
X94800000Y-64675000D01*
X95325000Y-65725000D02*
X95325000Y-64675000D01*
X113595000Y-51603641D02*
X113595000Y-51296359D01*
X114355000Y-51603641D02*
X114355000Y-51296359D01*
X106200000Y-73660000D02*
X108000000Y-73660000D01*
X106200000Y-73660000D02*
X105400000Y-73660000D01*
X106200000Y-70540000D02*
X107000000Y-70540000D01*
X106200000Y-70540000D02*
X105400000Y-70540000D01*
X87440000Y-55307836D02*
X87440000Y-55092164D01*
X88160000Y-55307836D02*
X88160000Y-55092164D01*
X87440000Y-70307836D02*
X87440000Y-70092164D01*
X88160000Y-70307836D02*
X88160000Y-70092164D01*
X112346359Y-72420000D02*
X112653641Y-72420000D01*
X112346359Y-73180000D02*
X112653641Y-73180000D01*
X113210000Y-69537221D02*
X113210000Y-69862779D01*
X112190000Y-69537221D02*
X112190000Y-69862779D01*
X97440000Y-70307836D02*
X97440000Y-70092164D01*
X98160000Y-70307836D02*
X98160000Y-70092164D01*
X84275000Y-55200000D02*
X84275000Y-55725000D01*
X84275000Y-55725000D02*
X85325000Y-55725000D01*
X85325000Y-54675000D02*
X84800000Y-54675000D01*
X85325000Y-55725000D02*
X85325000Y-54675000D01*
X92440000Y-65307836D02*
X92440000Y-65092164D01*
X93160000Y-65307836D02*
X93160000Y-65092164D01*
X94275000Y-60200000D02*
X94275000Y-60725000D01*
X94275000Y-60725000D02*
X95325000Y-60725000D01*
X95325000Y-59675000D02*
X94800000Y-59675000D01*
X95325000Y-60725000D02*
X95325000Y-59675000D01*
X82440000Y-70307836D02*
X82440000Y-70092164D01*
X83160000Y-70307836D02*
X83160000Y-70092164D01*
X108007836Y-47022500D02*
X107792164Y-47022500D01*
X108007836Y-46302500D02*
X107792164Y-46302500D01*
X103802400Y-69110000D02*
X103802400Y-68560000D01*
X104352400Y-64890000D02*
X103802400Y-64890000D01*
X104352400Y-69110000D02*
X103802400Y-69110000D01*
X107472400Y-64890000D02*
X108022400Y-64890000D01*
X107472400Y-69110000D02*
X108022400Y-69110000D01*
X108022400Y-64890000D02*
X108022400Y-65440000D01*
X108022400Y-69110000D02*
X108022400Y-68560000D01*
X77440000Y-55307836D02*
X77440000Y-55092164D01*
X78160000Y-55307836D02*
X78160000Y-55092164D01*
X102240000Y-73007836D02*
X102240000Y-72792164D01*
X102960000Y-73007836D02*
X102960000Y-72792164D01*
X106640000Y-48470336D02*
X106640000Y-48254664D01*
X107360000Y-48470336D02*
X107360000Y-48254664D01*
X84275000Y-65200000D02*
X84275000Y-65725000D01*
X84275000Y-65725000D02*
X85325000Y-65725000D01*
X85325000Y-64675000D02*
X84800000Y-64675000D01*
X85325000Y-65725000D02*
X85325000Y-64675000D01*
X82440000Y-65307836D02*
X82440000Y-65092164D01*
X83160000Y-65307836D02*
X83160000Y-65092164D01*
X104640000Y-63097836D02*
X104640000Y-62882164D01*
X105360000Y-63097836D02*
X105360000Y-62882164D01*
X77440000Y-70307836D02*
X77440000Y-70092164D01*
X78160000Y-70307836D02*
X78160000Y-70092164D01*
X79275000Y-70200000D02*
X79275000Y-70725000D01*
X79275000Y-70725000D02*
X80325000Y-70725000D01*
X80325000Y-69675000D02*
X79800000Y-69675000D01*
X80325000Y-70725000D02*
X80325000Y-69675000D01*
X92440000Y-55307836D02*
X92440000Y-55092164D01*
X93160000Y-55307836D02*
X93160000Y-55092164D01*
X92440000Y-50307836D02*
X92440000Y-50092164D01*
X93160000Y-50307836D02*
X93160000Y-50092164D01*
X116100000Y-58250000D02*
X116100000Y-58150000D01*
X116100000Y-59950000D02*
X120500000Y-59950000D01*
X120500000Y-56450000D02*
X116100000Y-56450000D01*
X120500000Y-58250000D02*
X120500000Y-58150000D01*
X92440000Y-60307836D02*
X92440000Y-60092164D01*
X93160000Y-60307836D02*
X93160000Y-60092164D01*
X108892164Y-57672500D02*
X109107836Y-57672500D01*
X108892164Y-58392500D02*
X109107836Y-58392500D01*
X111407836Y-58422500D02*
X111192164Y-58422500D01*
X111407836Y-57702500D02*
X111192164Y-57702500D01*
X106807836Y-58422500D02*
X106592164Y-58422500D01*
X106807836Y-57702500D02*
X106592164Y-57702500D01*
X97440000Y-65307836D02*
X97440000Y-65092164D01*
X98160000Y-65307836D02*
X98160000Y-65092164D01*
X99275000Y-55200000D02*
X99275000Y-55725000D01*
X99275000Y-55725000D02*
X100325000Y-55725000D01*
X100325000Y-54675000D02*
X99800000Y-54675000D01*
X100325000Y-55725000D02*
X100325000Y-54675000D01*
X106680000Y-62836359D02*
X106680000Y-63143641D01*
X105920000Y-62836359D02*
X105920000Y-63143641D01*
X89275000Y-55200000D02*
X89275000Y-55725000D01*
X89275000Y-55725000D02*
X90325000Y-55725000D01*
X90325000Y-54675000D02*
X89800000Y-54675000D01*
X90325000Y-55725000D02*
X90325000Y-54675000D01*
X77440000Y-60307836D02*
X77440000Y-60092164D01*
X78160000Y-60307836D02*
X78160000Y-60092164D01*
X97440000Y-60307836D02*
X97440000Y-60092164D01*
X98160000Y-60307836D02*
X98160000Y-60092164D01*
X84275000Y-50200000D02*
X84275000Y-50725000D01*
X84275000Y-50725000D02*
X85325000Y-50725000D01*
X85325000Y-49675000D02*
X84800000Y-49675000D01*
X85325000Y-50725000D02*
X85325000Y-49675000D01*
X97440000Y-55307836D02*
X97440000Y-55092164D01*
X98160000Y-55307836D02*
X98160000Y-55092164D01*
X109160000Y-76792164D02*
X109160000Y-77007836D01*
X108440000Y-76792164D02*
X108440000Y-77007836D01*
X111115000Y-73465000D02*
X111115000Y-74935000D01*
X111115000Y-74935000D02*
X113400000Y-74935000D01*
X113400000Y-73465000D02*
X111115000Y-73465000D01*
X94275000Y-55200000D02*
X94275000Y-55725000D01*
X94275000Y-55725000D02*
X95325000Y-55725000D01*
X95325000Y-54675000D02*
X94800000Y-54675000D01*
X95325000Y-55725000D02*
X95325000Y-54675000D01*
X92440000Y-70307836D02*
X92440000Y-70092164D01*
X93160000Y-70307836D02*
X93160000Y-70092164D01*
X108440000Y-73007836D02*
X108440000Y-72792164D01*
X109160000Y-73007836D02*
X109160000Y-72792164D01*
X99275000Y-50200000D02*
X99275000Y-50725000D01*
X99275000Y-50725000D02*
X100325000Y-50725000D01*
X100325000Y-49675000D02*
X99800000Y-49675000D01*
X100325000Y-50725000D02*
X100325000Y-49675000D01*
X113590000Y-49257836D02*
X113590000Y-49042164D01*
X114310000Y-49257836D02*
X114310000Y-49042164D01*
%LPC*%
D10*
X80914285Y-43581714D02*
X81428571Y-43581714D01*
X81485714Y-43753142D02*
X82400000Y-43753142D01*
X81085714Y-44667428D02*
X81371428Y-44667428D01*
X81085714Y-43924571D02*
X81085714Y-44781714D01*
X81028571Y-44096000D02*
X81371428Y-44096000D01*
X81371428Y-44096000D02*
X81371428Y-44667428D01*
X81485714Y-44153142D02*
X81714285Y-44381714D01*
X81942857Y-44210285D02*
X82171428Y-44438857D01*
X81657142Y-43467428D02*
X81714285Y-43696000D01*
X82171428Y-43867428D02*
X82000000Y-44210285D01*
X82285714Y-44096000D02*
X81942857Y-44781714D01*
X81714285Y-43867428D02*
X81542857Y-44210285D01*
X81828571Y-44096000D02*
X81485714Y-44781714D01*
X82171428Y-43467428D02*
X82114285Y-43696000D01*
X81142857Y-43696000D02*
X80914285Y-44381714D01*
X81142857Y-43638857D02*
X80971428Y-44267428D01*
X81771428Y-44553142D02*
X81828571Y-44781714D01*
X81828571Y-44781714D02*
X81428571Y-44781714D01*
X82285714Y-44553142D02*
X82342857Y-44781714D01*
X82342857Y-44781714D02*
X81942857Y-44781714D01*
X82971429Y-43981714D02*
X83942857Y-43981714D01*
X83542857Y-44324571D02*
X84000000Y-44324571D01*
X82742857Y-43696000D02*
X82742857Y-43924571D01*
X83485714Y-43981714D02*
X83485714Y-44781714D01*
X82742857Y-43696000D02*
X84114286Y-43696000D01*
X84114286Y-43696000D02*
X84114286Y-43924571D01*
X83428571Y-43467428D02*
X83428571Y-43696000D01*
X83028571Y-44210285D02*
X82800000Y-44781714D01*
X82971429Y-44496000D02*
X83257143Y-44724571D01*
X83257143Y-44724571D02*
X83828571Y-44838857D01*
X83828571Y-44838857D02*
X84171429Y-44838857D01*
X84914286Y-43810285D02*
X85885715Y-43810285D01*
X84857143Y-44781714D02*
X85942858Y-44781714D01*
X84742858Y-43753142D02*
X84742858Y-44838857D01*
X85428572Y-43467428D02*
X85428572Y-43810285D01*
X85714286Y-43981714D02*
X85485715Y-44781714D01*
X85142858Y-43981714D02*
X85200000Y-44610285D01*
X84857143Y-43524571D02*
X84685715Y-43867428D01*
X84685715Y-43867428D02*
X84457143Y-44096000D01*
X86228572Y-44324571D02*
X87600001Y-44324571D01*
X86971429Y-44324571D02*
X86971429Y-44838857D01*
X87314287Y-44496000D02*
X87428572Y-44553142D01*
X87428572Y-44553142D02*
X87714287Y-44781714D01*
X87371429Y-44096000D02*
X87657144Y-44438857D01*
X86571429Y-44496000D02*
X86285715Y-44781714D01*
X87600001Y-43524571D02*
X86857144Y-43638857D01*
X86857144Y-43638857D02*
X86342858Y-43638857D01*
X86800001Y-43638857D02*
X86514287Y-43981714D01*
X86514287Y-43981714D02*
X86857144Y-44096000D01*
X87257144Y-43753142D02*
X86685715Y-44324571D01*
X88628573Y-43753142D02*
X89485716Y-43753142D01*
X88971430Y-44153142D02*
X89371430Y-44153142D01*
X88628573Y-44153142D02*
X89142858Y-44153142D01*
X89142858Y-44838857D02*
X89485716Y-44838857D01*
X89200001Y-44210285D02*
X89200001Y-44838857D01*
X89485716Y-44667428D02*
X89428573Y-44838857D01*
X89200001Y-43924571D02*
X89428573Y-44096000D01*
X88171430Y-43810285D02*
X88057144Y-44038857D01*
X88457144Y-43867428D02*
X88342858Y-44038857D01*
X88342858Y-44038857D02*
X88000001Y-44381714D01*
X89028573Y-43753142D02*
X88857144Y-43924571D01*
X88857144Y-43924571D02*
X88628573Y-44153142D01*
X88971430Y-43467428D02*
X89028573Y-43696000D01*
X88342858Y-43467428D02*
X88114287Y-43924571D01*
X88685716Y-44724571D02*
X88457144Y-44838857D01*
X88800001Y-44267428D02*
X88742858Y-44667428D01*
X88400001Y-43981714D02*
X88000001Y-44038857D01*
X88457144Y-44324571D02*
X88000001Y-44381714D01*
X88457144Y-44610285D02*
X88000001Y-44724571D01*
D13*
X109800000Y-76420000D03*
X109800000Y-77380000D03*
D14*
X97800000Y-50680000D03*
X97800000Y-49720000D03*
D15*
X99600000Y-65000000D03*
X100000000Y-65000000D03*
X99600000Y-65400000D03*
X100000000Y-65400000D03*
D14*
X87800000Y-65680000D03*
X87800000Y-64720000D03*
D16*
X109899999Y-48162499D03*
X111099999Y-48162499D03*
X112299999Y-48162499D03*
D14*
X87800000Y-60680000D03*
X87800000Y-59720000D03*
D17*
X116600000Y-68990000D03*
X116600000Y-63210000D03*
D18*
X115154999Y-69349999D03*
X115154999Y-68549999D03*
D19*
X115154999Y-67349999D03*
X115154999Y-66349999D03*
X115154999Y-65849999D03*
X115154999Y-64849999D03*
D18*
X115154999Y-63649999D03*
X115154999Y-62849999D03*
X115154999Y-62849999D03*
X115154999Y-63649999D03*
D19*
X115154999Y-64349999D03*
X115154999Y-65349999D03*
X115154999Y-66849999D03*
X115154999Y-67849999D03*
D18*
X115154999Y-68549999D03*
X115154999Y-69349999D03*
D20*
X116069999Y-70419999D03*
D21*
X120249999Y-70419999D03*
D20*
X116069999Y-61779999D03*
D21*
X120249999Y-61779999D03*
D15*
X89600000Y-50000000D03*
X90000000Y-50000000D03*
X89600000Y-50400000D03*
X90000000Y-50400000D03*
D14*
X82800000Y-50680000D03*
X82800000Y-49720000D03*
X103600000Y-73380000D03*
X103600000Y-72420000D03*
D15*
X84600000Y-70000000D03*
X85000000Y-70000000D03*
X84600000Y-70400000D03*
X85000000Y-70400000D03*
D22*
X107337500Y-77050000D03*
X107337500Y-76100000D03*
X107337500Y-75150000D03*
X105062500Y-75150000D03*
X105062500Y-77050000D03*
D23*
X75800000Y-75200000D03*
D15*
X89600000Y-70000000D03*
X90000000Y-70000000D03*
X89600000Y-70400000D03*
X90000000Y-70400000D03*
X99600000Y-70000000D03*
X100000000Y-70000000D03*
X99600000Y-70400000D03*
X100000000Y-70400000D03*
X94600000Y-50000000D03*
X95000000Y-50000000D03*
X94600000Y-50400000D03*
X95000000Y-50400000D03*
D14*
X77800000Y-50680000D03*
X77800000Y-49720000D03*
X102600000Y-77380000D03*
X102600000Y-76420000D03*
D24*
X104435000Y-55475000D03*
X103415000Y-55475000D03*
D25*
X111812500Y-77000000D03*
X113387500Y-77000000D03*
D26*
X108300000Y-48872500D03*
X108300000Y-47852500D03*
D14*
X103600000Y-77380000D03*
X103600000Y-76420000D03*
D23*
X118200000Y-45200000D03*
D27*
X103349999Y-49449999D03*
X103349999Y-49949999D03*
X103349999Y-50449999D03*
X103349999Y-50949999D03*
X104349999Y-50949999D03*
X104349999Y-50449999D03*
X104349999Y-49949999D03*
X104349999Y-49449999D03*
D15*
X99600000Y-60000000D03*
X100000000Y-60000000D03*
X99600000Y-60400000D03*
X100000000Y-60400000D03*
X89600000Y-60000000D03*
X90000000Y-60000000D03*
X89600000Y-60400000D03*
X90000000Y-60400000D03*
X79600000Y-50000000D03*
X80000000Y-50000000D03*
X79600000Y-50400000D03*
X80000000Y-50400000D03*
D24*
X113210000Y-67300000D03*
X112190000Y-67300000D03*
D14*
X82800000Y-60680000D03*
X82800000Y-59720000D03*
D24*
X104435000Y-51975000D03*
X103415000Y-51975000D03*
D28*
X120374999Y-53674999D03*
X116224999Y-53674999D03*
X120374999Y-51524999D03*
X116249999Y-51524999D03*
D23*
X75800000Y-45200000D03*
D15*
X84600000Y-60000000D03*
X85000000Y-60000000D03*
X84600000Y-60400000D03*
X85000000Y-60400000D03*
D29*
X110299999Y-70399999D03*
X110299999Y-67599999D03*
D30*
X111990000Y-75600000D03*
X113010000Y-75600000D03*
D14*
X77800000Y-65680000D03*
X77800000Y-64720000D03*
D31*
X111400000Y-50625000D03*
X110900000Y-50625000D03*
X110400000Y-50625000D03*
X109900000Y-50625000D03*
X109400000Y-50625000D03*
X108900000Y-50625000D03*
X108400000Y-50625000D03*
X107900000Y-50625000D03*
X107400000Y-50625000D03*
D32*
X106562500Y-51462500D03*
X106562500Y-51962500D03*
X106562500Y-52462500D03*
X106562500Y-52962500D03*
X106562500Y-53462500D03*
X106562500Y-53962500D03*
X106562500Y-54462500D03*
X106562500Y-54962500D03*
X106562500Y-55462500D03*
D31*
X107400000Y-56300000D03*
X107900000Y-56300000D03*
X108400000Y-56300000D03*
X108900000Y-56300000D03*
X109400000Y-56300000D03*
X109900000Y-56300000D03*
X110400000Y-56300000D03*
X110900000Y-56300000D03*
X111400000Y-56300000D03*
D32*
X112237500Y-55462500D03*
X112237500Y-54962500D03*
X112237500Y-54462500D03*
X112237500Y-53962500D03*
X112237500Y-53462500D03*
X112237500Y-52962500D03*
X112237500Y-52462500D03*
X112237500Y-51962500D03*
X112237500Y-51462500D03*
D33*
X109399999Y-53462499D03*
D15*
X89600000Y-65000000D03*
X90000000Y-65000000D03*
X89600000Y-65400000D03*
X90000000Y-65400000D03*
X94600000Y-70000000D03*
X95000000Y-70000000D03*
X94600000Y-70400000D03*
X95000000Y-70400000D03*
X79600000Y-65000000D03*
X80000000Y-65000000D03*
X79600000Y-65400000D03*
X80000000Y-65400000D03*
X79600000Y-60000000D03*
X80000000Y-60000000D03*
X79600000Y-60400000D03*
X80000000Y-60400000D03*
D14*
X103700000Y-63470000D03*
X103700000Y-62510000D03*
D24*
X113210000Y-64400000D03*
X112190000Y-64400000D03*
D15*
X79600000Y-55000000D03*
X80000000Y-55000000D03*
X79600000Y-55400000D03*
X80000000Y-55400000D03*
D23*
X118200000Y-75200000D03*
D14*
X87800000Y-50680000D03*
X87800000Y-49720000D03*
D26*
X108100000Y-63510000D03*
X108100000Y-62490000D03*
D14*
X82800000Y-55680000D03*
X82800000Y-54720000D03*
D27*
X103349999Y-52974999D03*
X103349999Y-53474999D03*
X103349999Y-53974999D03*
X103349999Y-54474999D03*
X104349999Y-54474999D03*
X104349999Y-53974999D03*
X104349999Y-53474999D03*
X104349999Y-52974999D03*
D14*
X109800000Y-73380000D03*
X109800000Y-72420000D03*
D15*
X94600000Y-65000000D03*
X95000000Y-65000000D03*
X94600000Y-65400000D03*
X95000000Y-65400000D03*
D26*
X113975000Y-51960000D03*
X113975000Y-50940000D03*
D22*
X107337500Y-73050000D03*
X107337500Y-72100000D03*
X107337500Y-71150000D03*
X105062500Y-71150000D03*
X105062500Y-73050000D03*
D14*
X87800000Y-55680000D03*
X87800000Y-54720000D03*
X87800000Y-70680000D03*
X87800000Y-69720000D03*
D30*
X111990000Y-72800000D03*
X113010000Y-72800000D03*
D34*
X112700000Y-68912500D03*
X112700000Y-70487500D03*
D14*
X97800000Y-70680000D03*
X97800000Y-69720000D03*
D15*
X84600000Y-55000000D03*
X85000000Y-55000000D03*
X84600000Y-55400000D03*
X85000000Y-55400000D03*
D14*
X92800000Y-65680000D03*
X92800000Y-64720000D03*
D15*
X94600000Y-60000000D03*
X95000000Y-60000000D03*
X94600000Y-60400000D03*
X95000000Y-60400000D03*
D14*
X82800000Y-70680000D03*
X82800000Y-69720000D03*
D35*
X108380000Y-46662500D03*
X107420000Y-46662500D03*
D36*
X103924800Y-65800000D03*
X103924800Y-66200000D03*
X103924800Y-66600000D03*
X103924800Y-67000000D03*
X103924800Y-67400000D03*
X103924800Y-67800000D03*
X103924800Y-68200000D03*
D37*
X104712400Y-68987600D03*
X105112400Y-68987600D03*
X105512400Y-68987600D03*
D38*
X105913600Y-68987600D03*
D37*
X106312400Y-68987600D03*
X106712400Y-68987600D03*
X107112400Y-68987600D03*
D36*
X107900000Y-68200000D03*
X107900000Y-67800000D03*
X107900000Y-67400000D03*
X107900000Y-67000000D03*
X107900000Y-66600000D03*
X107900000Y-66200000D03*
X107900000Y-65800000D03*
D37*
X107112400Y-65012400D03*
X106712400Y-65012400D03*
X106312400Y-65012400D03*
X105912400Y-65012400D03*
X105512400Y-65012400D03*
X105112400Y-65012400D03*
X104712400Y-65012400D03*
D39*
X105912399Y-66999999D03*
D14*
X77800000Y-55680000D03*
X77800000Y-54720000D03*
X102600000Y-73380000D03*
X102600000Y-72420000D03*
X107000000Y-48842500D03*
X107000000Y-47882500D03*
D15*
X84600000Y-65000000D03*
X85000000Y-65000000D03*
X84600000Y-65400000D03*
X85000000Y-65400000D03*
D14*
X82800000Y-65680000D03*
X82800000Y-64720000D03*
X105000000Y-63470000D03*
X105000000Y-62510000D03*
X77800000Y-70680000D03*
X77800000Y-69720000D03*
D15*
X79600000Y-70000000D03*
X80000000Y-70000000D03*
X79600000Y-70400000D03*
X80000000Y-70400000D03*
D14*
X92800000Y-55680000D03*
X92800000Y-54720000D03*
X92800000Y-50680000D03*
X92800000Y-49720000D03*
D28*
X116224999Y-57124999D03*
X120374999Y-57124999D03*
X116224999Y-59274999D03*
X120349999Y-59274999D03*
D14*
X92800000Y-60680000D03*
X92800000Y-59720000D03*
D40*
X108520000Y-58032500D03*
X109480000Y-58032500D03*
D35*
X111780000Y-58062500D03*
X110820000Y-58062500D03*
X107180000Y-58062500D03*
X106220000Y-58062500D03*
D14*
X97800000Y-65680000D03*
X97800000Y-64720000D03*
D15*
X99600000Y-55000000D03*
X100000000Y-55000000D03*
X99600000Y-55400000D03*
X100000000Y-55400000D03*
D41*
X106300000Y-62480000D03*
X106300000Y-63500000D03*
D15*
X89600000Y-55000000D03*
X90000000Y-55000000D03*
X89600000Y-55400000D03*
X90000000Y-55400000D03*
D14*
X77800000Y-60680000D03*
X77800000Y-59720000D03*
X97800000Y-60680000D03*
X97800000Y-59720000D03*
D15*
X84600000Y-50000000D03*
X85000000Y-50000000D03*
X84600000Y-50400000D03*
X85000000Y-50400000D03*
D14*
X97800000Y-55680000D03*
X97800000Y-54720000D03*
D13*
X108800000Y-76420000D03*
X108800000Y-77380000D03*
D25*
X111812500Y-74200000D03*
X113387500Y-74200000D03*
D15*
X94600000Y-55000000D03*
X95000000Y-55000000D03*
X94600000Y-55400000D03*
X95000000Y-55400000D03*
D14*
X92800000Y-70680000D03*
X92800000Y-69720000D03*
X108800000Y-73380000D03*
X108800000Y-72420000D03*
D15*
X99600000Y-50000000D03*
X100000000Y-50000000D03*
X99600000Y-50400000D03*
X100000000Y-50400000D03*
D14*
X113950000Y-49630000D03*
X113950000Y-48670000D03*
G36*
X91838000Y-45066613D02*
G01*
X91883387Y-45112000D01*
X91900000Y-45174000D01*
X91900000Y-47426000D01*
X91883387Y-47488000D01*
X91838000Y-47533387D01*
X91776000Y-47550000D01*
X80474000Y-47550000D01*
X80412000Y-47533387D01*
X80366613Y-47488000D01*
X80350000Y-47426000D01*
X80350000Y-45174000D01*
X80366613Y-45112000D01*
X80412000Y-45066613D01*
X80474000Y-45050000D01*
X91776000Y-45050000D01*
X91838000Y-45066613D01*
G37*
M02*
