M48
; DRILL file {KiCad (7.0.0)} date Mon Apr  8 21:27:54 2024
; FORMAT={-:-/ absolute / metric / decimal}
; #@! TF.CreationDate,2024-04-08T21:27:54+08:00
; #@! TF.GenerationSoftware,Kicad,Pcbnew,(7.0.0)
; #@! TF.FileFunction,MixedPlating,1,2
FMAT,2
METRIC
; #@! TA.AperFunction,Plated,PTH,ViaDrill
T1C0.300
; #@! TA.AperFunction,Plated,PTH,ComponentDrill
T2C0.600
; #@! TA.AperFunction,NonPlated,NPTH,ComponentDrill
T3C0.650
; #@! TA.AperFunction,NonPlated,NPTH,ComponentDrill
T4C3.200
%
G90
G05
T1
X78.8Y-49.7
X78.8Y-54.7
X78.8Y-59.7
X78.8Y-64.7
X78.8Y-69.7
X81.225Y-50.4
X81.225Y-55.4
X81.225Y-60.4
X81.225Y-65.4
X81.225Y-70.4
X83.8Y-49.7
X83.8Y-54.7
X83.8Y-59.7
X83.8Y-64.7
X83.8Y-69.7
X86.225Y-50.4
X86.225Y-55.4
X86.225Y-60.4
X86.225Y-65.4
X86.225Y-70.4
X88.8Y-49.7
X88.8Y-54.7
X88.8Y-59.7
X88.8Y-64.7
X88.8Y-69.7
X91.225Y-50.4
X91.225Y-55.4
X91.225Y-60.4
X91.225Y-65.4
X91.225Y-70.4
X93.8Y-49.8
X93.8Y-54.7
X93.8Y-59.7
X93.8Y-64.7
X93.8Y-69.7
X96.225Y-50.4
X96.225Y-55.4
X96.225Y-60.4
X96.225Y-65.4
X96.225Y-70.4
X98.8Y-49.8
X98.8Y-54.7
X98.8Y-59.7
X98.8Y-64.7
X98.8Y-69.7
X100.5Y-71.3
X101.225Y-55.4
X101.225Y-60.4
X101.225Y-65.4
X101.225Y-70.4
X101.25Y-50.375
X101.65Y-68.375
X101.925Y-49.775
X102.0Y-51.9
X102.0Y-57.875
X102.025Y-53.775
X102.025Y-63.0
X102.6Y-75.6
X103.175Y-66.8
X103.2Y-67.6
X103.6Y-71.6
X103.6Y-75.6
X103.7Y-59.6
X104.925Y-64.25
X105.0Y-61.7
X105.1Y-50.938
X105.1Y-49.95
X105.1Y-66.2
X105.1Y-67.0
X105.1Y-67.8
X105.125Y-51.975
X105.15Y-53.45
X105.15Y-54.475
X105.15Y-55.475
X105.4Y-58.1
X105.45Y-49.457
X105.45Y-50.452
X105.525Y-52.975
X105.525Y-53.975
X105.65Y-64.25
X105.8Y-56.0
X105.9Y-66.2
X105.9Y-67.0
X105.9Y-67.8
X106.2Y-47.9
X106.2Y-57.3
X106.3Y-61.7
X106.6Y-46.6
X106.7Y-66.2
X106.7Y-67.0
X106.7Y-67.8
X106.8Y-56.0
X107.4Y-45.8
X107.8Y-65.1
X107.9Y-57.25
X108.1Y-64.15
X108.2Y-52.2
X108.2Y-53.4
X108.2Y-54.6
X108.55Y-57.25
X108.8Y-71.5
X108.8Y-75.5
X108.8Y-78.0
X108.9Y-68.1
X109.225Y-57.25
X109.4Y-52.2
X109.4Y-53.4
X109.4Y-54.6
X109.8Y-71.5
X109.8Y-78.0
X109.825Y-66.35
X109.9Y-46.6
X109.9Y-68.6
X110.4Y-57.2
X110.6Y-47.4
X110.6Y-48.9
X110.6Y-52.2
X110.6Y-53.4
X110.6Y-54.6
X110.7Y-68.6
X111.0Y-77.0
X111.1Y-46.6
X111.3Y-75.6
X111.6Y-47.4
X111.6Y-48.9
X112.0Y-56.1
X112.1Y-50.5
X112.2Y-63.6
X112.2Y-65.2
X112.2Y-68.0
X112.3Y-46.6
X112.5Y-74.2
X112.7Y-57.075
X113.2Y-47.4
X113.2Y-48.9
X113.3Y-50.9
X113.875Y-56.95
X113.9Y-47.9
X114.05Y-65.85
X114.05Y-66.85
X114.6Y-53.6
X114.6Y-55.5
X114.7Y-50.9
X116.2Y-54.8
X116.2Y-56.0
X116.225Y-58.675
X120.4Y-54.8
X120.4Y-56.0
T3
X116.6Y-63.21
X116.6Y-68.99
T4
X75.8Y-45.2
X75.8Y-75.2
X118.2Y-45.2
X118.2Y-75.2
T2
G00X115.52Y-61.78
M15
G01X116.62Y-61.78
M16
G05
G00X115.52Y-70.42
M15
G01X116.62Y-70.42
M16
G05
G00X119.95Y-61.78
M15
G01X120.55Y-61.78
M16
G05
G00X119.95Y-70.42
M15
G01X120.55Y-70.42
M16
G05
T0
M30
